<?xml version="1.0" encoding="utf-8"?>
<!-- Generator: Adobe Illustrator 22.0.1, SVG Export Plug-In . SVG Version: 6.00 Build 0)  -->
<svg version="1.1" id="Capa_1" xmlns="http://www.w3.org/2000/svg" xmlns:xlink="http://www.w3.org/1999/xlink" x="0px" y="0px"
	 viewBox="0 0 300 100" style="enable-background:new 0 0 300 100;" xml:space="preserve">
<style type="text/css">
	.st0{fill-rule:evenodd;clip-rule:evenodd;fill:url(#SVGID_1_);}
	.st1{fill-rule:evenodd;clip-rule:evenodd;fill:#4670A9;}
	.st2{fill-rule:evenodd;clip-rule:evenodd;fill:url(#SVGID_2_);stroke:url(#SVGID_3_);stroke-miterlimit:10;}
	.st3{fill:#4670A9;}
	.st4{fill:#436A9E;}
	.st5{font-family:'Bebas';}
	.st6{font-size:36.5877px;}
</style>
<g>
	<linearGradient id="SVGID_1_" gradientUnits="userSpaceOnUse" x1="170.6726" y1="89.2418" x2="170.6726" y2="-6.446">
		<stop  offset="0.3125" style="stop-color:#4670A9"/>
		<stop  offset="0.4074" style="stop-color:#5C7BA6;stop-opacity:0.989"/>
		<stop  offset="0.6054" style="stop-color:#8B9996;stop-opacity:0.9659"/>
		<stop  offset="0.8875" style="stop-color:#D8D46A;stop-opacity:0.9331"/>
		<stop  offset="1" style="stop-color:#F7EC45;stop-opacity:0.92"/>
	</linearGradient>
	<path class="st0" d="M170.5,20.4c10-0.1,19.2,2.6,27.8,7.7c0.7,0.4,1.3,0.8,1.9,1.2c2.1,1.3,4,1.3,5.4-0.9c1.3-2.1,0.3-3.7-1.6-5
		c-6.8-4.3-14.2-7.3-22.2-8.6c-19.5-3.3-36.9,1.5-52.1,14.1c-2.6,2.2-5.2,2.1-6.9,0c-1.7-2.1-1.3-4.7,1.2-6.9
		c25.6-22.8,67.3-22.9,92.9-0.2c3.4,3,3.5,5.3,0.1,8.5c-3.3,3.1-6.6,6.1-9.9,9.1c-2.9,2.7-4.6,2.7-7.8,0.3
		c-15.9-12.6-33.1-13.5-51.2-5.2c-0.7,0.3-1.4,0.7-2,1.1c-1.5,1-2.4,2.4-1.3,4.2c1.1,1.9,2.7,2.1,4.5,1.1c3.8-2.3,7.7-4.1,12-5.3
		c14.3-4.1,26.2,0.2,36.6,10.2c2.3,2.2,1.9,4.5-0.1,6.7c-3,3.2-6.1,6.3-9.2,9.4c-2.2,2.2-4.4,2.4-7,0.4c-7.9-6.1-14.2-6-22.2,0.4
		c-2.5,2-4.9,2-6.7,0.1c-1.8-2-1.6-4.7,1-6.9c7.7-6.9,16.5-8.6,26.3-5.1c0.8,0.3,1.6,0.7,2.4,1.1c1.7,1,3.2,1,4.2-0.9
		c1.1-2-0.2-3-1.7-3.9c-7.3-4.4-15-5.2-23-2.1c-4.3,1.7-8.3,3.9-11.9,6.8c-3.1,2.6-5.2,2.4-7.8-0.8c-2.8-3.4-5.5-6.8-8.2-10.2
		c-2.6-3.2-2.3-5.6,1-8.1C145.4,24.5,157.3,20.5,170.5,20.4z"/>
</g>
<g>
	<g>
		<path class="st1" d="M181.7,68.7c-5.9-6.1-16.1-6.1-22.1,0c-5.9,6-5.9,15.8,0.1,21.8c6,6,15.8,6,21.8,0.1
			C187.5,84.7,187.6,74.8,181.7,68.7z M165.8,84.3c-2.5-2.5-2.4-6.7,0.1-9.3c2.7-2.7,6.8-2.7,9.5,0c2.6,2.6,2.5,6.6-0.1,9.2
			C172.7,86.9,168.4,86.9,165.8,84.3z"/>
	</g>
</g>
<linearGradient id="SVGID_2_" gradientUnits="userSpaceOnUse" x1="156.0103" y1="71.9809" x2="156.0103" y2="71.9809">
	<stop  offset="0" style="stop-color:#4C90B8"/>
	<stop  offset="0.1491" style="stop-color:#5193AD"/>
	<stop  offset="0.4673" style="stop-color:#5C9B8C"/>
	<stop  offset="0.9262" style="stop-color:#6EA74D"/>
	<stop  offset="1" style="stop-color:#70A83B"/>
</linearGradient>
<linearGradient id="SVGID_3_" gradientUnits="userSpaceOnUse" x1="156.0103" y1="71.9809" x2="156.0103" y2="71.9809">
	<stop  offset="0" style="stop-color:#4A72B2"/>
	<stop  offset="1" style="stop-color:#70A83B"/>
</linearGradient>
<path class="st2" d="M156,72"/>
<g>
	<g>
		<path class="st3" d="M26.9,68.5v18.8c0,0.8,0.7,1.5,1.5,1.5h7.9c1.3,0,2.4,1.1,2.4,2.4c0,1.3-1.1,2.4-2.4,2.4H24.5
			c-1.3,0-2.4-1.1-2.4-2.4V68.5c0-1.3,1.1-2.4,2.4-2.4C25.9,66,26.9,67.2,26.9,68.5z"/>
		<path class="st3" d="M69.2,79.8c0,8.1-5.7,13.7-13.7,13.7s-13.7-5.7-13.7-13.7c0-8.1,5.7-13.7,13.7-13.7S69.2,71.7,69.2,79.8z
			 M64.4,79.8c0-6.6-4.8-8.9-8.9-8.9c-4.1,0-8.9,2.3-8.9,8.9c0,6.6,4.8,8.9,8.9,8.9C59.6,88.7,64.4,86.4,64.4,79.8z"/>
		<path class="st3" d="M94.6,86.1c0.5-0.5,1.1-0.8,1.8-0.8c0.6,0,1.2,0.2,1.6,0.7c1,0.9,1,2.4,0.1,3.4c-2.5,2.7-6.1,4.2-10.2,4.2
			c-8.1,0-13.7-5.7-13.7-13.7c0-8.1,5.7-13.7,13.7-13.7c4.1,0,7.7,1.5,10.2,4.2c0.9,1,0.9,2.5-0.1,3.4c-0.5,0.4-1.1,0.7-1.6,0.7
			c-0.7,0-1.3-0.3-1.8-0.8c-1.6-1.7-4-2.6-6.7-2.6c-4.1,0-8.9,2.3-8.9,8.9c0,6.6,4.8,8.9,8.9,8.9C90.6,88.7,93,87.8,94.6,86.1z"/>
		<path class="st3" d="M120.7,68.5c0-1.3,1.1-2.4,2.4-2.4c1.3,0,2.4,1.1,2.4,2.4v15c0,5.6-4.5,10.1-10.1,10.1h-1.4
			c-5.6,0-10.1-4.5-10.1-10.1v-15c0-1.3,1.1-2.4,2.4-2.4c1.3,0,2.4,1.1,2.4,2.4v15c0,2.9,2.4,5.3,5.3,5.3h1.4c2.9,0,5.3-2.4,5.3-5.3
			L120.7,68.5z"/>
		<path class="st3" d="M133.4,70.9c-1.3,0-2.5-1-2.5-2.3c0-1.3,1.1-2.4,2.4-2.4h17.1c1.3,0,2.4,1.1,2.4,2.4c0,1.3-1.1,2.4-2.4,2.4
			h-4.7c-0.8,0-1.5,0.7-1.5,1.5v18.8c0,1.3-1.1,2.4-2.4,2.4c-1.3,0-2.4-1.1-2.4-2.4V72.4c0-0.8-0.7-1.5-1.5-1.5H133.4z"/>
	</g>
</g>
<g>
	<g>
		<path class="st3" d="M207,81.7c-0.6,0.5-1.3,0.9-2,1.3c-0.3,0.1-0.4,0.5-0.2,0.7l4.7,7.6c1,1.6-0.2,3.7-2,3.7
			c-0.8,0-1.6-0.4-2-1.1l-5.7-9.3c-0.3-0.5-0.8-0.8-1.4-0.8c-0.7,0-1.3,0.5-1.3,1.3v7.5c0,1.3-1.1,2.4-2.4,2.4
			c-1.3,0-2.4-1.1-2.4-2.4V69.9c0-1.3,1.1-2.4,2.4-2.4h6.6c4.7,0,8.4,3.4,8.4,8.2C209.7,78.1,208.8,80.2,207,81.7L207,81.7z
			 M197.1,77.5c0,0.8,0.7,1.5,1.5,1.5h2.7c0.6,0,3.5-0.2,3.5-3.3c0-3.1-2.9-3.3-3.5-3.3h-2.7c-0.8,0-1.5,0.7-1.5,1.5V77.5z"/>
		<path class="st3" d="M215.8,92.7V70c0-1.3,1.1-2.4,2.4-2.4c1.3,0,2.4,1.1,2.4,2.4v22.7c0,1.3-1.1,2.4-2.4,2.4
			C216.9,95,215.8,94,215.8,92.7z"/>
		<path class="st3" d="M253.7,81.3c0,8.1-5.7,13.7-13.7,13.7c-8.1,0-13.7-5.7-13.7-13.7c0-8.1,5.7-13.7,13.7-13.7
			C248,67.5,253.7,73.2,253.7,81.3z M248.9,81.3c0-6.6-4.8-8.9-8.9-8.9c-4.1,0-8.9,2.3-8.9,8.9c0,6.6,4.8,8.9,8.9,8.9
			C244.1,90.2,248.9,87.9,248.9,81.3z"/>
		<path class="st3" d="M275.5,81.1c1.8,1.1,3,3.1,3,5.8c0,3.7-2.6,8.1-10,8.1c-4.4,0-7.3-1-9.4-3.3c-0.9-1-0.8-2.5,0.2-3.4
			c0.5-0.4,1.1-0.6,1.6-0.6c0.7,0,1.3,0.3,1.8,0.8c0.5,0.5,1.5,1.7,5.8,1.7c2.1,0,5.3-0.5,5.3-3.2c0-1.7-1-2.3-5.5-3.3
			c-4.4-1.1-9.2-2.4-9.2-7.9v-0.1c0-5.2,4.7-8.1,9.5-8.1c3.1,0,5.2,0.8,7.1,2.6c0.9,0.9,1,2.5,0,3.4c-0.5,0.5-1.1,0.7-1.7,0.7
			c-0.6,0-1.3-0.2-1.7-0.7c-0.7-0.7-1.5-1.2-3.7-1.2c-2.7,0-4.7,1.4-4.7,3.3v0.1c0,1.6,1,2.2,5.5,3.3c2,0.5,4,0.9,5.7,2L275.5,81.1z
			"/>
	</g>
</g>
<text transform="matrix(1.1752 0 0 1 21.1055 57.5859)" class="st4 st5 st6">PINES</text>
</svg>
